<svg width="255" height="42" fill="none" xmlns="http://www.w3.org/2000/svg"><path d="M9.479 40.982V23.808c1.227-1.56 2.955-2.341 4.46-2.341 1.673 0 3.067 1.06 3.067 3.178v16.337h9.479V23.195c1.17-1.17 2.62-1.728 3.903-1.728 1.673 0 3.067 1.06 3.067 3.178v16.337h9.478V23.808c0-3.958-1.84-10.426-9.869-10.426-3.512 0-6.356 1.673-8.53 3.68-1.45-2.063-3.904-3.68-7.918-3.68-3.848 0-6.858 2.007-8.252 3.68v-2.844H0v26.764h9.479ZM47.014 27.6c0 9.2 7.081 14.218 15.891 14.218 4.238 0 7.416-.613 9.925-1.505v-7.026c-2.23.837-4.684 1.283-7.695 1.283-3.847 0-7.471-1.171-8.53-4.126h17.507c1.896-8.141-1.56-17.062-13.047-17.062-5.854 0-14.05 3.736-14.05 14.218Zm18.456-2.844h-8.977c0-2.788 2.174-4.516 4.795-4.516 3.791 0 4.46 3.234 4.182 4.516ZM98.47 1.952v14.44c-1.617-1.672-4.237-3.01-7.973-3.01-8.977 0-12.936 7.304-12.936 14.218s3.959 14.218 12.936 14.218c4.795 0 7.75-2.23 9.088-4.46v3.624h8.364V1.952H98.47Zm0 22.581v6.134a6.024 6.024 0 0 1-5.408 3.345c-4.015 0-5.743-3.29-5.743-6.412s1.728-6.412 5.743-6.412a6.024 6.024 0 0 1 5.408 3.345ZM123.173 40.982V14.218h-9.479v26.764h9.479Zm.669-35.797c0-3.624-2.509-5.185-5.408-5.185-2.844 0-5.409 1.561-5.409 5.185 0 3.68 2.565 5.242 5.409 5.242 2.899 0 5.408-1.562 5.408-5.242ZM137.303 17.285v-3.067h-8.364v26.764h9.479V23.808c.837-1.059 2.454-2.341 4.572-2.341 2.342 0 4.071 1.338 4.071 4.181v15.334h9.478V24.366c0-6.022-3.345-10.984-10.705-10.984-3.569 0-6.301 1.505-8.531 3.903ZM181.507 1.952v14.44c-1.617-1.672-4.237-3.01-7.973-3.01-8.977 0-12.936 7.304-12.936 14.218s3.959 14.218 12.936 14.218c4.795 0 7.75-2.23 9.089-4.46v3.624h8.363V1.952h-9.479Zm0 22.581v6.134a6.023 6.023 0 0 1-5.408 3.345c-4.015 0-5.743-3.29-5.743-6.412s1.728-6.412 5.743-6.412a6.023 6.023 0 0 1 5.408 3.345ZM195.338 27.6c0 9.2 7.081 14.218 15.891 14.218 4.237 0 7.416-.613 9.925-1.505v-7.026c-2.231.837-4.684 1.283-7.695 1.283-3.847 0-7.471-1.171-8.531-4.126h17.508c1.896-8.141-1.561-17.062-13.047-17.062-5.855 0-14.051 3.736-14.051 14.218Zm18.456-2.844h-8.977c0-2.788 2.174-4.516 4.795-4.516 3.791 0 4.46 3.234 4.182 4.516ZM243.738 14.218l-4.405 7.026-4.405-7.026h-10.705l9.59 13.438-10.092 13.326h10.705l4.907-6.914 4.907 6.914h10.705l-10.092-13.326 9.59-13.438h-10.705Z" fill="#fff"/></svg>