<svg width="48" height="48" fill="none" xmlns="http://www.w3.org/2000/svg"><g clip-path="url(#b)"><path d="M44.63 6.076H28.795A4.217 4.217 0 0 0 27.012.812a4.216 4.216 0 0 0-5.753 1.541L19.11 6.075H4.25A4.254 4.254 0 0 0 0 10.325V36.8a4.254 4.254 0 0 0 4.249 4.25h13.165c.161 1.434.061 3.15-.277 4.827h-5.281a.938.938 0 0 0 0 1.875h24.289a.938.938 0 0 0 0-1.875H30.81c-.368-1.692-.487-3.41-.33-4.828h13.27A4.254 4.254 0 0 0 48 36.802V9.445a3.374 3.374 0 0 0-3.37-3.37Zm-31.373 15.26 2.859 1.651-2.86 1.65v-3.3Zm4.39.37L13.6 19.37 21.28 6.065l4.048 2.337-7.682 13.304Zm8.428-19.27a2.34 2.34 0 0 1 .855 3.192l-.664 1.15L22.22 4.44l.664-1.15a2.34 2.34 0 0 1 3.192-.855ZM4.25 7.95h13.779l-6.52 11.293a.938.938 0 0 0-.126.469v6.548c0 .518.42.938.937.938h23.362a.938.938 0 0 0 0-1.875H15.818l2.641-1.525c.143-.082.261-.2.343-.343L27.755 7.95H44.63c.824 0 1.495.67 1.495 1.495v23.143H1.875V10.324a2.376 2.376 0 0 1 2.374-2.373Zm24.648 37.927h-9.851c.302-1.666.393-3.36.254-4.828h9.296c-.134 1.456-.027 3.15.301 4.828Zm14.854-6.703H4.25a2.376 2.376 0 0 1-2.374-2.373v-2.338h44.25V36.8a2.376 2.376 0 0 1-2.374 2.374ZM36.618 20.59c0 .517-.42.937-.937.937h-9.712a.938.938 0 0 1 0-1.875h9.712c.517 0 .937.42.937.938Z" fill="#005EB8"/></g><defs><clipPath id="b"><path fill="#fff" d="M0 0h48v48H0z"/></clipPath></defs></svg>