<svg width="48" height="48" fill="none" xmlns="http://www.w3.org/2000/svg"><path d="M24 8c-3.86 0-7 3.14-7 7s3.14 7 7 7 7-3.14 7-7-3.14-7-7-7Zm0 12c-2.758 0-5-2.242-5-5s2.242-5 5-5 5 2.242 5 5-2.242 5-5 5ZM46.832 46.446l-8-12A1.002 1.002 0 0 0 38 34h-9.7a1 1 0 0 0 0 2h9.166l6.666 10H3.87l6.666-10H19.7a1 1 0 0 0 0-2H10c-.334 0-.646.168-.832.444l-8 12a1 1 0 0 0-.048 1.028c.172.324.51.528.88.528h44c.37 0 .708-.204.88-.526a.994.994 0 0 0-.048-1.028Z" fill="#005EB8"/><path d="M24 0C15.728 0 9 6.728 9 15c0 7.98 13.626 25.852 14.208 26.608a.994.994 0 0 0 1.584 0C25.374 40.852 39 22.98 39 15c0-8.272-6.728-15-15-15Zm0 39.33C21.064 35.356 11 21.272 11 15c0-7.168 5.832-13 13-13s13 5.832 13 13c0 6.272-10.064 20.356-13 24.33Z" fill="#005EB8"/></svg>