<svg width="48" height="48" fill="none" xmlns="http://www.w3.org/2000/svg"><g clip-path="url(#c)" fill="#005EB8"><path d="M43 48H5c-2.758 0-5-2.244-5-5V5c0-2.756 2.242-5 5-5h38c2.758 0 5 2.244 5 5v38c0 2.756-2.242 5-5 5ZM5 2C3.346 2 2 3.346 2 5v38c0 1.654 1.346 3 3 3h38c1.654 0 3-1.346 3-3V5c0-1.654-1.346-3-3-3H5Z"/><path d="M39 24a1 1 0 0 1-1-1V10H25a1 1 0 0 1 0-2h14a1 1 0 0 1 1 1v14a1 1 0 0 1-1 1Z"/><path d="M21 28a1 1 0 0 1-.708-1.706l18-18a1 1 0 0 1 1.414 1.414l-18 18A.996.996 0 0 1 21 28ZM17 48a1 1 0 0 1-1-1V32H1a1 1 0 0 1 0-2h16a1 1 0 0 1 1 1v16a1 1 0 0 1-1 1Z"/></g><defs><clipPath id="c"><path fill="#fff" d="M0 0h48v48H0z"/></clipPath></defs></svg>