<svg width="48" height="48" fill="none" xmlns="http://www.w3.org/2000/svg"><g clip-path="url(#a)" fill="#005EB8"><path d="M41 10c-2.758 0-5-2.242-5-5s2.242-5 5-5 5 2.242 5 5-2.242 5-5 5Zm0-8c-1.654 0-3 1.346-3 3s1.346 3 3 3 3-1.346 3-3-1.346-3-3-3Z"/><path d="M47 12c-.256 0-.512-.098-.708-.292l-3-3a1 1 0 0 1 1.414-1.414l3 3A1 1 0 0 1 47 12ZM29 12H3c-1.654 0-3-1.346-3-3V3c0-1.654 1.346-3 3-3h26c1.654 0 3 1.346 3 3v6c0 1.654-1.346 3-3 3ZM3 2c-.55 0-1 .45-1 1v6c0 .55.45 1 1 1h26c.55 0 1-.45 1-1V3c0-.55-.45-1-1-1H3ZM6 48c-3.308 0-6-2.692-6-6s2.692-6 6-6 6 2.692 6 6-2.692 6-6 6Zm0-10c-2.206 0-4 1.794-4 4s1.794 4 4 4 4-1.794 4-4-1.794-4-4-4ZM11 26H1a1 1 0 0 1 0-2h10a1 1 0 0 1 0 2ZM11 32H1a1 1 0 0 1 0-2h10a1 1 0 0 1 0 2ZM11 20H1a1 1 0 0 1 0-2h10a1 1 0 0 1 0 2ZM45 48H19c-1.654 0-3-1.346-3-3V19c0-1.654 1.346-3 3-3h26c1.654 0 3 1.346 3 3v26c0 1.654-1.346 3-3 3ZM19 18c-.55 0-1 .45-1 1v26c0 .55.45 1 1 1h26c.55 0 1-.45 1-1V19c0-.55-.45-1-1-1H19Z"/><path d="M32 30c-1.654 0-3-1.346-3-3s1.346-3 3-3 3 1.346 3 3-1.346 3-3 3Zm0-4c-.55 0-1 .45-1 1s.45 1 1 1 1-.45 1-1-.45-1-1-1ZM37 38a1 1 0 0 1-1-1v-1a2 2 0 0 0-2-2h-4a2 2 0 0 0-2 2v1a1 1 0 0 1-2 0v-1c0-2.206 1.794-4 4-4h4c2.206 0 4 1.794 4 4v1a1 1 0 0 1-1 1Z"/></g><defs><clipPath id="a"><path fill="#fff" d="M0 0h48v48H0z"/></clipPath></defs></svg>