<svg xmlns="http://www.w3.org/2000/svg" viewBox="0 0 4587.5 1102.79"><path d="M706.98 52.18c-44.92-19.48-93.19-32.63-143.72-38.41 19.54 32.89 33.89 81.82 39.78 138.76 33.61-46.43 70.55-81.65 103.94-100.35" fill="#fdc61a"/><path d="M302.86 52.18c33.4 18.7 70.34 53.92 103.94 100.35 5.88-56.94 20.24-105.86 39.78-138.76-50.53 5.77-98.81 18.92-143.72 38.41" fill="#eb5d4b"/><path d="M871.09 616.81c46.43 33.61 81.65 70.55 100.35 103.94 19.48-44.92 32.63-93.18 38.41-143.72-32.89 19.54-81.82 33.9-138.76 39.78" fill="#6dc5ce"/><path d="M0 577.03c5.77 50.53 18.92 98.81 38.41 143.72 18.7-33.4 53.92-70.34 100.35-103.94C81.82 610.92 32.9 596.57 0 577.03" fill="#bf60a2"/><path d="M138.76 420.58c-46.43-33.61-81.65-70.55-100.35-103.94C18.92 361.55 5.77 409.82 0 460.36c32.89-19.54 81.82-33.89 138.76-39.78" fill="#ea5e9d"/><path d="M236.87 250.64c-23.39-52.29-35.43-101.87-34.93-140.15-40 29.74-75.48 65.21-105.22 105.22 38.28-.49 87.86 11.54 140.15 34.93" fill="#d0161a"/><path d="M236.87 786.75C184.58 810.14 135 822.18 96.72 821.68c29.74 40 65.22 75.48 105.22 105.22-.49-38.28 11.54-87.86 34.93-140.15" fill="#8e66a9"/><path d="M406.81 884.86c-33.61 46.43-70.55 81.65-103.94 100.35 44.92 19.48 93.18 32.63 143.72 38.41-19.54-32.89-33.89-81.82-39.78-138.76" fill="#692579"/><path d="M772.97 786.75c23.39 52.29 35.43 101.87 34.93 140.15 40-29.74 75.48-65.22 105.22-105.22-38.28.49-87.86-11.54-140.15-34.93" fill="#4587c7"/><path d="M603.04 884.86c-5.88 56.94-20.24 105.86-39.78 138.76 50.54-5.77 98.81-18.92 143.72-38.41-33.4-18.7-70.34-53.92-103.94-100.35" fill="#005cb9"/><path d="M871.09 420.58c56.94 5.88 105.86 20.24 138.76 39.78-5.77-50.54-18.92-98.81-38.41-143.72-18.7 33.4-53.92 70.34-100.35 103.94" fill="#70bc81"/><path d="M772.97 250.64c52.29-23.39 101.87-35.43 140.15-34.93A511.152 511.152 0 0 0 807.9 110.49c.49 38.28-11.54 87.86-34.93 140.15" fill="#b4cc0e"/><path d="M745.54 395.89c24.5 14.09 60.82 24.18 102.98 27.91-33.88 25.29-59.46 52.9-72.92 77.76-15.46-34.23-25.4-69.81-30.06-105.66" fill="#70bc81"/><path d="M652.69 292.32c28.27-.04 64.76-9.47 103.13-27.32-16.69 38.83-25.04 75.55-24.27 103.79-30.51-21.9-56.9-47.75-78.86-76.47" fill="#b4cc0e"/><path d="M520.51 249.04c24.46-14.17 51.36-40.58 75.66-75.22 4.96 41.98 16.09 77.94 30.88 102.03-37.38-3.73-73.16-12.91-106.54-26.8" fill="#fdc61a"/><path d="M384.39 277.66c14.09-24.5 24.18-60.82 27.91-102.98 25.29 33.88 52.9 59.46 77.76 72.92-34.23 15.46-69.81 25.4-105.66 30.06" fill="#eb5d4b"/><path d="M280.81 370.5c-.04-28.27-9.47-64.76-27.32-103.13 38.83 16.69 75.55 25.04 103.79 24.27-21.9 30.51-47.75 56.9-76.47 78.86" fill="#d0161a"/><path d="M237.53 502.69c-14.17-24.46-40.58-51.35-75.22-75.66 41.98-4.96 77.94-16.09 102.03-30.87-3.71 37.37-12.91 73.15-26.8 106.53" fill="#ea5e9d"/><path d="M266.15 638.81c-24.5-14.09-60.82-24.18-102.98-27.91 33.88-25.29 59.46-52.9 72.92-77.76 15.46 34.23 25.4 69.81 30.06 105.66" fill="#bf60a2"/><path d="M358.99 742.38c-28.27.04-64.76 9.47-103.13 27.32 16.69-38.83 25.04-75.54 24.27-103.79 30.51 21.9 56.9 47.75 78.86 76.47" fill="#8e66a9"/><path d="M491.18 785.66c-24.46 14.18-51.35 40.58-75.66 75.22-4.96-41.98-16.09-77.94-30.88-102.02 37.38 3.71 73.16 12.9 106.54 26.79" fill="#692579"/><path d="M627.3 757.04c-14.09 24.5-24.18 60.82-27.91 102.97-25.29-33.87-52.9-59.45-77.76-72.91 34.23-15.46 69.81-25.41 105.66-30.06" fill="#005cb9"/><path d="M730.87 664.2c.04 28.27 9.47 64.76 27.32 103.13-38.83-16.69-75.54-25.04-103.79-24.27 21.9-30.51 47.75-56.9 76.47-78.86" fill="#4587c7"/><path d="M774.15 532.01c14.18 24.46 40.58 51.35 75.22 75.66-41.98 4.96-77.94 16.09-102.02 30.87 3.71-37.37 12.9-73.15 26.79-106.53" fill="#6dc5ce"/><g fill="#692579"><path d="M1507.47 19.91v249.46h-35.25V126.92c.12-7.67.24-15.92.37-24.74.12-8.83.25-17.01.37-24.56.12-7.55.21-13.79.28-18.72.06-4.93.09-12.45.09-22.55-2.43 8.4-5.78 18.9-10.04 31.5-4.26 12.6-8.67 25.05-13.23 37.34-4.56 12.3-9.88 26.6-15.97 42.92l-47.08 121.26h-34.48l-47.08-121.26c-7.06-18.5-14.39-37.74-21.99-57.71-7.6-19.96-13.71-37.98-18.34-54.05 0 1.71-.12 2.98-.37 3.83 0 1.1.12 2.95.37 5.57.24 2.62.46 4.72.64 6.3s.33 3.35.46 5.3c1.83 15.46 2.74 39.51 2.74 72.13v139.88h-35.61V19.91h58.42l49.26 125.28c7.3 18.26 13.29 33.66 17.97 46.2 4.68 12.54 8.55 25.08 11.59 37.62 5.96-20.82 15.93-49 29.92-84.55l47.44-124.54h59.51ZM1600.24 5.3v37.43h-37.07V5.3h37.07Zm-.73 81.26v182.8h-34.15V86.56h34.15ZM1813.35 0v184.08c0 9.5.31 23.8.92 42.92.61 19.12 1.16 33.24 1.65 42.37h-33.04v-30.86c-7.43 11.38-16.26 19.8-26.48 25.25-10.23 5.45-22.47 8.17-36.71 8.17-15.95 0-30.02-3.77-42.19-11.32-12.18-7.55-21.52-18.38-28.03-32.51-6.51-14.12-9.77-30.56-9.77-49.31 0-14.24 1.85-27.09 5.57-38.53 3.71-11.44 9.22-21.55 16.53-30.31s15.82-15.37 25.57-19.81c9.74-4.44 20.52-6.67 32.33-6.67 25.93 0 46.14 10.59 60.63 31.78 0-1.83-.09-4.38-.28-7.67s-.37-6.54-.55-9.77c-.18-3.22-.27-5.75-.27-7.58V0h34.14Zm-85.36 112.31c-7.66 0-14.65 1.58-20.96 4.74-6.32 3.16-11.85 7.72-16.59 13.68s-8.39 13.07-10.94 21.34c-2.55 8.27-3.83 17.02-3.83 26.26 0 18.97 4.8 34.5 14.4 46.59 9.6 12.1 21.88 18.14 36.83 18.14 10.09 0 19.14-2.83 27.16-8.48s14.34-13.49 18.96-23.52c4.62-10.03 6.93-21.06 6.93-33.1s-2.28-23.28-6.84-33.37c-4.56-10.09-10.82-17.99-18.78-23.71-7.96-5.71-16.74-8.57-26.34-8.57ZM1982.1 100.26c9.98-5.84 19.87-10.1 29.68-12.78 9.8-2.68 20.3-4.02 31.5-4.02 17.17 0 31.56 3.26 43.19 9.77 11.62 6.51 19.69 15.74 24.2 27.67 3.77 9.98 5.66 26.91 5.66 50.77v35.61c0 13.76.15 25.78.46 36.07.3 10.29.76 18.96 1.37 26.02h-31.04c-.25-4.26-.37-9.01-.37-14.24 0-6.45.12-12.17.37-17.17-7.06 11.81-15.46 20.42-25.2 25.84-9.74 5.42-21.79 8.13-36.16 8.13-12.66 0-23.83-2.25-33.51-6.76s-17.11-10.93-22.28-19.27c-5.18-8.34-7.76-17.99-7.76-28.94 0-9.62 2.1-18.11 6.3-25.48 4.2-7.36 10.38-13.63 18.54-18.81 8.15-5.17 18.14-9.04 29.95-11.6 11.81-2.56 25.44-3.83 40.91-3.83 9.25 0 17.77.25 25.57.73-.25-15.71-4.08-27.24-11.5-34.61-7.43-7.37-18.81-11.05-34.15-11.05-9.98 0-19.11 1.37-27.39 4.11-8.28 2.74-17.11 7.21-26.48 13.42l-1.83-29.58Zm102.08 82.73c-7.55-.73-13.7-1.1-18.44-1.1-45.05 0-67.57 11.57-67.57 34.7 0 5.6 1.46 10.53 4.38 14.79s7.06 7.61 12.42 10.04c5.36 2.44 11.44 3.65 18.26 3.65 12.54 0 22.58-2.74 30.13-8.22 7.55-5.48 12.9-12.84 16.07-22.1 3.16-9.25 4.75-19.84 4.75-31.78ZM2201.42 86.56l1.64 29.04c13.88-21.43 34.82-32.14 62.82-32.14 15.34 0 27.63 2.8 36.89 8.4 9.25 5.6 16.07 13 20.45 22.19 4.38 9.19 7.24 19.3 8.58 30.31 1.34 11.02 2.01 24.38 2.01 40.08v84.92h-33.6V187c0-13.15-.21-22.74-.64-28.76-.43-6.03-1.19-11.35-2.28-15.98-2.56-9.74-7.18-17.17-13.88-22.28-6.7-5.11-15.04-7.67-25.02-7.67-11.2 0-21.18 3.35-29.95 10.04-8.77 6.7-14.92 15.83-18.44 27.39-1.1 3.29-1.98 7.12-2.65 11.5-.67 4.38-1.07 9.13-1.19 14.24-.12 5.11-.18 14.06-.18 26.84v67.02h-33.97v-90.21c-.25-10.35-.43-19.87-.55-28.58-.12-8.7-.34-18.99-.64-30.86-.3-11.87-.7-22.92-1.19-33.15h31.78ZM2545.46 0v184.08c0 9.5.31 23.8.92 42.92.61 19.12 1.16 33.24 1.65 42.37h-33.04v-30.86c-7.43 11.38-16.26 19.8-26.48 25.25-10.23 5.45-22.47 8.17-36.71 8.17-15.95 0-30.01-3.77-42.19-11.32-12.18-7.55-21.52-18.38-28.03-32.51-6.51-14.12-9.77-30.56-9.77-49.31 0-14.24 1.85-27.09 5.57-38.53 3.71-11.44 9.22-21.55 16.53-30.31s15.83-15.37 25.57-19.81c9.74-4.44 20.52-6.67 32.33-6.67 25.93 0 46.14 10.59 60.63 31.78 0-1.83-.09-4.38-.28-7.67s-.37-6.54-.55-9.77c-.18-3.22-.27-5.75-.27-7.58V0h34.14Zm-85.36 112.31c-7.66 0-14.65 1.58-20.96 4.74-6.32 3.16-11.85 7.72-16.59 13.68s-8.39 13.07-10.94 21.34c-2.55 8.27-3.83 17.02-3.83 26.26 0 18.97 4.8 34.5 14.4 46.59 9.6 12.1 21.88 18.14 36.83 18.14 10.09 0 19.14-2.83 27.16-8.48s14.34-13.49 18.96-23.52c4.62-10.03 6.93-21.06 6.93-33.1s-2.28-23.28-6.84-33.37c-4.56-10.09-10.82-17.99-18.78-23.71-7.96-5.71-16.74-8.57-26.34-8.57ZM2827.43 24.47l-4.38 31.41c-17.78-6.82-33.36-10.23-46.75-10.23-9.01 0-16.89 1.43-23.65 4.29-6.76 2.86-11.99 6.88-15.71 12.05-3.71 5.18-5.57 11.23-5.57 18.17 0 10.84 3.8 19.12 11.41 24.84 7.61 5.72 21 13.54 40.18 23.47 19.18 9.92 33.57 19.97 43.19 30.13 9.62 10.17 14.43 23.65 14.43 40.45 0 14.61-3.53 27.7-10.59 39.26-7.06 11.57-17.08 20.45-30.04 26.66-12.97 6.21-27.85 9.31-44.65 9.31-19.85 0-38.78-3.29-56.79-9.86l3.65-33.6c18.38 8.77 34.7 13.15 48.94 13.15 10.1 0 19.08-1.7 26.94-5.11 7.85-3.41 13.88-8.31 18.08-14.7 4.2-6.39 6.3-13.91 6.3-22.55 0-12.42-4.2-21.82-12.6-28.21-8.4-6.39-21.73-13.97-39.99-22.74s-32.08-17.87-41.45-27.3c-9.38-9.43-14.06-22.74-14.06-39.9 0-13.39 3.26-25.23 9.77-35.52 6.51-10.29 15.77-18.29 27.76-24.01 11.99-5.72 25.66-8.58 41-8.58 19.36 0 37.56 3.04 54.6 9.13ZM3057.53 178.42c0 18.51-3.99 35.06-11.97 49.67s-19.2 25.96-33.64 34.06c-14.44 8.09-30.68 12.14-48.71 12.14s-33.76-4.11-47.89-12.33c-14.14-8.22-25.23-19.72-33.27-34.51-8.04-14.79-12.06-31.14-12.06-49.03 0-14.12 2.28-27.06 6.85-38.81 4.57-11.75 11.09-21.97 19.56-30.68 8.47-8.7 18.46-15.43 29.98-20.18s23.91-7.12 37.2-7.12 25.9 2.31 37.47 6.94c11.58 4.63 21.63 11.32 30.16 20.09 8.53 8.77 15.05 19.12 19.56 31.04 4.51 11.93 6.77 24.84 6.77 38.71Zm-35.98.82c0-10-1.43-19.44-4.29-28.34-2.86-8.9-6.88-16.49-12.05-22.77-5.18-6.28-11.26-11.12-18.26-14.54-7-3.41-14.64-5.12-22.92-5.12-16.68 0-30.53 6.58-41.54 19.75-11.02 13.17-16.53 29.81-16.53 49.92 0 13.29 2.46 25.24 7.4 35.84 4.93 10.61 11.81 18.83 20.63 24.68 8.83 5.85 18.84 8.78 30.04 8.78s20.64-2.89 29.4-8.69c8.77-5.79 15.64-13.93 20.64-24.41 4.99-10.48 7.49-22.18 7.49-35.11ZM3255.49 86.93v115.05c0 9.98.85 32.45 2.56 67.39h-31.57l-1.47-28.49c-7.42 10.35-16.29 18.11-26.63 23.28-10.34 5.18-22.01 7.76-35.02 7.76-25.41 0-43.04-7.91-52.89-23.74-9.85-15.83-14.77-37.31-14.77-64.46V86.93h33.97v84.73c0 6.7.15 13.64.45 20.82.3 7.18.76 12.78 1.37 16.8.61 4.02 1.52 7.73 2.74 11.14 3.28 8.04 7.99 14.15 14.12 18.35 6.13 4.2 13.4 6.3 21.78 6.3 7.78 0 14.82-1.55 21.14-4.66 6.32-3.1 11.72-7.58 16.22-13.42s7.96-12.84 10.39-21c2.43-8.16 3.65-17.1 3.65-26.84V86.93h33.97ZM3358.66 33.78v53.51h48.58v26.48h-48.58v71.67c0 16.41.73 28.39 2.19 35.93 1.1 6.57 4.11 11.76 9.04 15.59 4.93 3.83 11.23 5.74 18.9 5.74 7.06 0 14.43-1.89 22.1-5.66v29.37c-10.74 3.43-21.23 5.14-31.48 5.14-15.86 0-27.82-3.22-35.87-9.68-8.05-6.45-13.21-14.91-15.47-25.38-2.26-10.47-3.38-24.04-3.38-40.72v-82h-42V87.29h42v-42l33.97-11.5ZM3481.38 0v87.66c0 9.5-.37 18.93-1.1 28.31 6.33-10.96 14.58-19.11 24.75-24.47 10.17-5.36 22.19-8.04 36.07-8.04 17.77 0 31.74 4.02 41.91 12.05 10.17 8.04 17.14 18.63 20.91 31.78 3.77 13.15 5.66 28.61 5.66 46.38v95.69h-33.97V190.1c0-23.5-1.04-39.32-3.1-47.48-2.56-9.98-7.12-17.53-13.7-22.64s-14.85-7.67-24.84-7.67c-7.18 0-14.06 1.52-20.64 4.57-6.57 3.04-12.3 7.4-17.17 13.06-4.87 5.66-8.46 12.27-10.77 19.81-.85 2.56-1.64 6-2.37 10.32-.73 4.32-1.19 8.86-1.37 13.61-.18 4.75-.27 12.48-.27 23.19v72.5h-34.33V0h34.33ZM3907.98 19.91v30.68H3804.8v73.22h95.69v30.68h-95.69v84.55h106.1v30.31h-141.71V19.91h138.79ZM4053.34 90.89l-2.56 28.36c-11.93-5.96-24.29-8.95-37.07-8.95-9.38 0-16.83 2.1-22.37 6.31-5.54 4.21-8.31 9.72-8.31 16.54s2.74 12.5 8.22 16.27c5.48 3.78 15.25 9.17 29.31 16.18 14.06 7.01 24.75 14.23 32.05 21.67 7.3 7.44 10.96 17.31 10.96 29.62 0 8.29-1.55 15.88-4.67 22.76-3.11 6.89-7.65 12.8-13.62 17.73-5.98 4.94-13.14 8.72-21.49 11.34-8.35 2.62-17.34 3.93-26.98 3.93-16.83 0-32.68-3.49-47.55-10.47v-30.43c8.78 4.26 16.53 7.34 23.24 9.22 6.71 1.89 13.3 2.83 19.77 2.83s12.75-1.03 18.12-3.1c5.37-2.07 9.58-4.92 12.63-8.57 3.05-3.65 4.58-7.72 4.58-12.22 0-6.93-2.9-12.34-8.69-16.24-5.8-3.89-15.62-9.42-29.47-16.6-13.85-7.17-24.37-14.5-31.57-21.98s-10.8-17-10.8-28.55c0-10.58 2.62-19.88 7.86-27.91 5.24-8.02 12.71-14.23 22.41-18.6 9.7-4.38 20.82-6.57 33.38-6.57 13.54 0 27.75 2.48 42.62 7.44ZM4194.69 90.89l-2.56 28.36c-11.93-5.96-24.29-8.95-37.07-8.95-9.38 0-16.83 2.1-22.37 6.31-5.54 4.21-8.31 9.72-8.31 16.54s2.74 12.5 8.22 16.27c5.48 3.78 15.25 9.17 29.31 16.18 14.06 7.01 24.75 14.23 32.05 21.67 7.3 7.44 10.96 17.31 10.96 29.62 0 8.29-1.55 15.88-4.67 22.76-3.11 6.89-7.65 12.8-13.62 17.73-5.98 4.94-13.14 8.72-21.49 11.34-8.35 2.62-17.34 3.93-26.98 3.93-16.83 0-32.68-3.49-47.55-10.47v-30.43c8.78 4.26 16.53 7.34 23.24 9.22 6.71 1.89 13.3 2.83 19.77 2.83s12.75-1.03 18.12-3.1c5.37-2.07 9.58-4.92 12.63-8.57 3.05-3.65 4.58-7.72 4.58-12.22 0-6.93-2.9-12.34-8.69-16.24-5.8-3.89-15.62-9.42-29.47-16.6-13.85-7.17-24.37-14.5-31.57-21.98s-10.8-17-10.8-28.55c0-10.58 2.62-19.88 7.86-27.91 5.24-8.02 12.71-14.23 22.41-18.6 9.7-4.38 20.82-6.57 33.38-6.57 13.54 0 27.75 2.48 42.62 7.44ZM4265.36 186.63c2.43 18.14 9.1 32.48 20 43.01 10.89 10.53 24.56 15.8 41 15.8 9.74 0 19.23-1.4 28.49-4.2 9.25-2.8 18.81-7.12 28.67-12.97v32.51c-11.08 4.87-21.12 8.34-30.13 10.41-9.01 2.07-18.51 3.1-28.49 3.1-14.12 0-26.97-2.31-38.53-6.94-11.57-4.62-21.43-11.26-29.58-19.91-8.16-8.64-14.43-19.08-18.81-31.32-4.38-12.24-6.57-25.66-6.57-40.27 0-18.63 3.53-35.06 10.59-49.31 7.06-14.24 17.19-25.29 30.41-33.14 13.21-7.85 28.21-11.78 45.01-11.78 19.72 0 35.46 4.84 47.21 14.52s20.09 22.43 25.02 38.26c4.93 15.83 7.4 33.24 7.4 52.23h-131.67Zm.37-26.48h97.33c-1.22-9.98-3.53-18.78-6.94-26.39-3.41-7.61-8.46-13.72-15.16-18.35-6.7-4.62-14.92-6.94-24.65-6.94-13.39 0-24.56 4.6-33.51 13.79s-14.64 21.82-17.07 37.89ZM4580.74 86.56l-58.38 86.74 65.13 96.06h-41.96l-33.93-52.78c-5.72-8.64-9.73-16.01-12.04-22.1-.85 2.19-1.71 4.23-2.56 6.12-.85 1.89-2.16 4.32-3.92 7.3-1.76 2.99-3.32 5.63-4.65 7.94l-34.48 53.51h-39.58l65.49-96.06-60.57-86.74h41.41l29.92 45.11c5.71 9.13 9.73 16.74 12.04 22.83.73-2.31 1.79-4.87 3.19-7.67s2.92-5.51 4.56-8.13c1.64-2.62 3.13-5.08 4.47-7.4l28.46-44.74h37.4ZM1271.17 397.91v249.46h-35.61V397.91h35.61ZM1363.39 464.56l1.64 29.04c13.88-21.43 34.82-32.14 62.82-32.14 15.34 0 27.64 2.8 36.89 8.4 9.25 5.6 16.07 13 20.45 22.19 4.38 9.19 7.24 19.3 8.58 30.31 1.34 11.02 2.01 24.38 2.01 40.09v84.92h-33.6v-82.36c0-13.15-.21-22.74-.64-28.76-.43-6.03-1.19-11.35-2.28-15.98-2.56-9.74-7.19-17.17-13.88-22.28-6.7-5.11-15.04-7.67-25.02-7.67-11.2 0-21.18 3.35-29.95 10.04-8.77 6.7-14.91 15.83-18.44 27.39-1.1 3.29-1.98 7.12-2.65 11.51-.67 4.38-1.07 9.13-1.19 14.24-.12 5.11-.18 14.06-.18 26.84v67.02h-33.97v-90.21c-.25-10.35-.43-19.87-.55-28.58-.12-8.7-.34-18.99-.64-30.86-.31-11.87-.7-22.92-1.19-33.15h31.78ZM1594.22 411.78v53.51h48.58v26.48h-48.58v71.67c0 16.41.73 28.39 2.19 35.93 1.1 6.57 4.11 11.76 9.04 15.59s11.23 5.74 18.9 5.74c7.06 0 14.43-1.89 22.1-5.66v29.37c-10.74 3.43-21.23 5.14-31.48 5.14-15.86 0-27.82-3.22-35.87-9.68-8.05-6.45-13.21-14.91-15.47-25.38-2.26-10.47-3.38-24.04-3.38-40.72v-82h-42v-26.48h42v-42l33.97-11.5ZM1705.25 564.64c2.43 18.14 9.1 32.48 20 43.01 10.89 10.53 24.56 15.8 41 15.8 9.74 0 19.23-1.4 28.49-4.2 9.25-2.8 18.81-7.12 28.67-12.97v32.51c-11.08 4.87-21.12 8.34-30.13 10.41-9.01 2.07-18.51 3.1-28.49 3.1-14.12 0-26.97-2.31-38.53-6.94-11.57-4.62-21.43-11.26-29.58-19.91-8.16-8.64-14.43-19.08-18.81-31.32-4.38-12.24-6.57-25.66-6.57-40.27 0-18.63 3.53-35.06 10.59-49.31 7.06-14.24 17.19-25.29 30.41-33.14 13.21-7.85 28.21-11.78 45.02-11.78 19.72 0 35.46 4.84 47.21 14.52s20.09 22.43 25.02 38.26c4.93 15.83 7.4 33.24 7.4 52.23h-131.67Zm.37-26.48h97.33c-1.22-9.98-3.53-18.78-6.94-26.39-3.41-7.61-8.46-13.72-15.16-18.35-6.7-4.62-14.91-6.94-24.65-6.94-13.39 0-24.56 4.6-33.51 13.79s-14.64 21.82-17.07 37.89ZM2039.62 464.01v151.57c0 18.14-1.07 33.78-3.2 46.93-2.13 13.15-6.31 24.5-12.52 34.06-6.21 9.56-15.23 16.89-27.04 22.01-11.82 5.11-27.23 7.67-46.23 7.67-23.03 0-46.24-4.08-69.63-12.24l3.3-33.05c22.78 10.96 44.65 16.44 65.61 16.44 12.43 0 23.06-2.37 31.89-7.12s15.26-11.57 19.28-20.45c2.44-4.63 4.08-9.77 4.93-15.43.85-5.66 1.31-12.26 1.37-19.81.06-7.55.21-13.27.46-17.17-13.78 20.21-34.13 30.31-61.07 30.31-15.85 0-29.87-3.77-42.06-11.32-12.19-7.55-21.64-18.17-28.34-31.87-6.71-13.7-10.06-29.61-10.06-47.75s3.35-34.88 10.06-49.49c6.71-14.61 16.06-25.9 28.07-33.88 12.01-7.97 25.87-11.96 41.6-11.96 14.26 0 26.97 3.17 38.12 9.5 11.15 6.33 19.05 14.79 23.68 25.38.12-.97.21-1.83.27-2.56.06-.73.09-1.4.09-2.01l-.37-4.93v-22.83h31.78Zm-85.65 26.3c-9.86 0-18.75 2.83-26.66 8.49-7.92 5.66-14.06 13.51-18.44 23.56-4.38 10.05-6.57 21.4-6.57 34.06s2.16 23.16 6.48 32.6c4.32 9.44 10.32 16.77 17.99 22 7.67 5.24 16.37 7.85 26.11 7.85 7.79 0 14.97-1.55 21.55-4.66 6.57-3.11 12.26-7.52 17.07-13.24 4.81-5.72 8.49-12.48 11.05-20.27 2.56-7.79 3.83-16.37 3.83-25.75 0-11.93-2.28-22.86-6.85-32.78-4.57-9.92-10.9-17.71-18.99-23.38-8.1-5.66-16.96-8.49-26.57-8.49ZM2089.66 464.56h31.41l1.64 32.51c5.48-11.44 12.63-20.12 21.46-26.02 8.83-5.9 19.08-8.86 30.77-8.86 6.09 0 12.24.79 18.44 2.37v31.04c-5.84-2.07-11.2-3.1-16.07-3.1-11.81 0-21.61 3.44-29.4 10.32-7.79 6.88-13.45 15.64-16.98 26.3-3.53 10.65-5.3 21.76-5.3 33.33v84.92h-33.6v-111.4c0-18.02-.79-41.82-2.37-71.4ZM2234.11 478.26c9.98-5.84 19.87-10.1 29.67-12.78 9.8-2.68 20.3-4.02 31.5-4.02 17.17 0 31.56 3.26 43.19 9.77 11.62 6.51 19.69 15.74 24.2 27.67 3.77 9.98 5.66 26.91 5.66 50.77v35.61c0 13.76.15 25.78.46 36.07.3 10.29.76 18.96 1.37 26.02h-31.04c-.25-4.26-.37-9.01-.37-14.24 0-6.45.12-12.17.37-17.17-7.06 11.81-15.46 20.42-25.2 25.84-9.74 5.42-21.79 8.13-36.16 8.13-12.66 0-23.83-2.25-33.51-6.76-9.68-4.5-17.11-10.93-22.28-19.27-5.18-8.34-7.76-17.99-7.76-28.94 0-9.62 2.1-18.11 6.3-25.48 4.2-7.36 10.38-13.63 18.54-18.81 8.16-5.17 18.14-9.04 29.95-11.6 11.81-2.56 25.44-3.83 40.91-3.83 9.25 0 17.77.25 25.57.73-.25-15.71-4.08-27.24-11.5-34.61-7.43-7.37-18.81-11.05-34.15-11.05-9.98 0-19.12 1.37-27.39 4.11-8.28 2.74-17.11 7.21-26.48 13.42l-1.83-29.58Zm102.08 82.73c-7.55-.73-13.7-1.1-18.44-1.1-45.05 0-67.57 11.57-67.57 34.7 0 5.6 1.46 10.53 4.38 14.79s7.06 7.61 12.42 10.04c5.36 2.44 11.44 3.65 18.26 3.65 12.54 0 22.58-2.74 30.13-8.22 7.55-5.48 12.9-12.84 16.07-22.1 3.16-9.25 4.75-19.84 4.75-31.78ZM2470.78 411.78v53.51h48.58v26.48h-48.58v71.67c0 16.41.73 28.39 2.19 35.93 1.1 6.57 4.11 11.76 9.04 15.59 4.93 3.83 11.23 5.74 18.9 5.74 7.06 0 14.43-1.89 22.1-5.66v29.37c-10.74 3.43-21.23 5.14-31.48 5.14-15.86 0-27.82-3.22-35.87-9.68-8.05-6.45-13.21-14.91-15.47-25.38-2.26-10.47-3.38-24.04-3.38-40.72v-82h-42v-26.48h42v-42l33.97-11.5ZM2581.81 564.64c2.43 18.14 9.1 32.48 20 43.01 10.89 10.53 24.56 15.8 41 15.8 9.74 0 19.23-1.4 28.49-4.2 9.25-2.8 18.81-7.12 28.67-12.97v32.51c-11.08 4.87-21.12 8.34-30.13 10.41-9.01 2.07-18.51 3.1-28.49 3.1-14.12 0-26.97-2.31-38.53-6.94-11.57-4.62-21.43-11.26-29.58-19.91-8.16-8.64-14.43-19.08-18.81-31.32-4.38-12.24-6.57-25.66-6.57-40.27 0-18.63 3.53-35.06 10.59-49.31 7.06-14.24 17.19-25.29 30.41-33.14 13.21-7.85 28.21-11.78 45.01-11.78 19.72 0 35.46 4.84 47.21 14.52s20.09 22.43 25.02 38.26c4.93 15.83 7.4 33.24 7.4 52.23h-131.67Zm.37-26.48h97.33c-1.22-9.98-3.53-18.78-6.94-26.39-3.41-7.61-8.46-13.72-15.16-18.35-6.7-4.62-14.92-6.94-24.65-6.94-13.39 0-24.56 4.6-33.51 13.79s-14.64 21.82-17.07 37.89ZM2916.54 378v184.08c0 9.5.31 23.8.92 42.92.61 19.12 1.16 33.24 1.65 42.37h-33.04v-30.86c-7.43 11.38-16.26 19.8-26.48 25.25-10.23 5.45-22.47 8.17-36.71 8.17-15.95 0-30.01-3.77-42.19-11.32-12.18-7.55-21.52-18.38-28.03-32.51-6.51-14.12-9.77-30.56-9.77-49.31 0-14.24 1.85-27.09 5.57-38.53 3.71-11.44 9.22-21.55 16.53-30.31s15.83-15.37 25.57-19.81c9.74-4.44 20.52-6.67 32.33-6.67 25.93 0 46.14 10.59 60.63 31.78 0-1.83-.09-4.38-.28-7.67s-.37-6.54-.55-9.77c-.18-3.22-.27-5.75-.27-7.58v-90.21h34.14Zm-85.36 112.31c-7.66 0-14.65 1.58-20.96 4.74-6.32 3.16-11.85 7.72-16.59 13.68s-8.39 13.07-10.94 21.34c-2.55 8.27-3.83 17.02-3.83 26.26 0 18.97 4.8 34.5 14.4 46.59 9.6 12.1 21.88 18.14 36.83 18.14 10.09 0 19.14-2.83 27.16-8.48s14.34-13.49 18.96-23.52c4.62-10.03 6.93-21.06 6.93-33.1s-2.28-23.28-6.84-33.37c-4.56-10.09-10.82-17.99-18.78-23.71-7.96-5.71-16.74-8.57-26.34-8.57ZM3254.94 407.22l-2.92 34.15c-9.38-5.48-17.96-9.28-25.75-11.41-7.79-2.13-16.56-3.2-26.3-3.2-13.76 0-26.39 2.22-37.89 6.67-11.5 4.45-21.52 10.87-30.04 19.27s-15.1 18.35-19.72 29.86c-4.63 11.51-6.94 24.2-6.94 38.08 0 18.26 4.17 34.79 12.51 49.58s19.84 26.36 34.52 34.7c14.67 8.34 31.07 12.51 49.21 12.51 16.92 0 34.7-3.71 53.32-11.14l2.74 34.33c-9.74 3.17-18.6 5.39-26.57 6.67-7.97 1.28-17.44 1.92-28.4 1.92-26.18 0-49.52-5.05-70.03-15.16-20.52-10.1-36.56-24.8-48.12-44.1-11.57-19.29-17.35-42.15-17.35-68.57 0-24.11 5.51-45.65 16.53-64.65 11.02-18.99 26.54-33.78 46.57-44.38 20.03-10.59 42.64-15.89 67.84-15.89 21.79 0 40.72 3.59 56.79 10.77ZM3302.6 478.26c9.98-5.84 19.87-10.1 29.67-12.78 9.8-2.68 20.3-4.02 31.5-4.02 17.17 0 31.56 3.26 43.19 9.77 11.62 6.51 19.69 15.74 24.2 27.67 3.77 9.98 5.66 26.91 5.66 50.77v35.61c0 13.76.15 25.78.46 36.07.3 10.29.76 18.96 1.37 26.02h-31.04c-.25-4.26-.37-9.01-.37-14.24 0-6.45.12-12.17.37-17.17-7.06 11.81-15.46 20.42-25.2 25.84-9.74 5.42-21.79 8.13-36.16 8.13-12.66 0-23.83-2.25-33.51-6.76-9.68-4.5-17.11-10.93-22.28-19.27-5.18-8.34-7.76-17.99-7.76-28.94 0-9.62 2.1-18.11 6.3-25.48 4.2-7.36 10.38-13.63 18.54-18.81 8.16-5.17 18.14-9.04 29.95-11.6 11.81-2.56 25.44-3.83 40.91-3.83 9.25 0 17.77.25 25.57.73-.25-15.71-4.08-27.24-11.5-34.61-7.43-7.37-18.81-11.05-34.15-11.05-9.98 0-19.12 1.37-27.39 4.11-8.28 2.74-17.11 7.21-26.48 13.42l-1.83-29.58Zm102.08 82.73c-7.55-.73-13.7-1.1-18.44-1.1-45.05 0-67.57 11.57-67.57 34.7 0 5.6 1.46 10.53 4.38 14.79s7.06 7.61 12.42 10.04c5.36 2.44 11.44 3.65 18.26 3.65 12.54 0 22.58-2.74 30.13-8.22 7.55-5.48 12.9-12.84 16.07-22.1 3.16-9.25 4.75-19.84 4.75-31.78ZM3490.51 464.56h31.41l1.64 32.51c5.48-11.44 12.63-20.12 21.46-26.02 8.83-5.9 19.08-8.86 30.77-8.86 6.09 0 12.24.79 18.44 2.37v31.04c-5.84-2.07-11.2-3.1-16.07-3.1-11.81 0-21.61 3.44-29.4 10.32-7.79 6.88-13.45 15.64-16.98 26.3-3.53 10.65-5.3 21.76-5.3 33.33v84.92h-33.6v-111.4c0-18.02-.79-41.82-2.37-71.4ZM3647.56 564.64c2.43 18.14 9.1 32.48 20 43.01 10.89 10.53 24.56 15.8 41 15.8 9.74 0 19.23-1.4 28.49-4.2 9.25-2.8 18.81-7.12 28.67-12.97v32.51c-11.08 4.87-21.12 8.34-30.13 10.41-9.01 2.07-18.51 3.1-28.49 3.1-14.12 0-26.97-2.31-38.53-6.94-11.57-4.62-21.43-11.26-29.58-19.91-8.16-8.64-14.43-19.08-18.81-31.32-4.38-12.24-6.57-25.66-6.57-40.27 0-18.63 3.53-35.06 10.59-49.31 7.06-14.24 17.19-25.29 30.41-33.14 13.21-7.85 28.21-11.78 45.01-11.78 19.72 0 35.46 4.84 47.21 14.52s20.09 22.43 25.02 38.26c4.93 15.83 7.4 33.24 7.4 52.23h-131.67Zm.37-26.48h97.33c-1.22-9.98-3.53-18.78-6.94-26.39-3.41-7.61-8.46-13.72-15.16-18.35-6.7-4.62-14.92-6.94-24.65-6.94-13.39 0-24.56 4.6-33.51 13.79s-14.64 21.82-17.07 37.89ZM1350.42 780.47l-4.38 31.41c-17.78-6.82-33.36-10.23-46.75-10.23-9.01 0-16.89 1.43-23.65 4.29-6.76 2.86-11.99 6.88-15.71 12.05-3.72 5.18-5.57 11.23-5.57 18.17 0 10.84 3.8 19.12 11.41 24.84 7.61 5.72 21 13.54 40.18 23.47 19.17 9.92 33.57 19.97 43.19 30.13 9.62 10.17 14.43 23.65 14.43 40.45 0 14.61-3.53 27.7-10.59 39.26-7.06 11.57-17.07 20.45-30.04 26.66s-27.85 9.31-44.65 9.31c-19.85 0-38.78-3.29-56.79-9.86l3.65-33.6c18.38 8.77 34.7 13.15 48.94 13.15 10.1 0 19.08-1.7 26.94-5.11 7.85-3.41 13.88-8.31 18.08-14.7 4.2-6.39 6.3-13.91 6.3-22.55 0-12.42-4.2-21.82-12.6-28.21-8.4-6.39-21.73-13.97-39.99-22.74s-32.08-17.87-41.45-27.3c-9.38-9.43-14.06-22.74-14.06-39.9 0-13.39 3.26-25.23 9.77-35.52 6.51-10.29 15.77-18.29 27.76-24.01 11.99-5.72 25.66-8.58 41-8.58 19.36 0 37.56 3.04 54.6 9.13ZM1552.4 842.56l-65.01 180.97c-6.82 18.75-12.57 32.96-17.26 42.64-4.69 9.68-11.72 18.2-21.09 25.57-9.38 7.37-21.43 11.05-36.16 11.05-5.6 0-12.54-.97-20.82-2.9l1.83-27.23c5.84 2.19 11.2 3.29 16.07 3.29 10.83 0 19.48-4.02 25.93-12.06 6.45-8.04 11.5-18.34 15.16-30.89l-70.31-190.44h36.71l40.72 115.41c5.48 16.07 8.7 28.67 9.68 37.8 1.22-7.42 3.83-17.17 7.85-29.22l43.1-124h33.6ZM1674.02 846.89l-2.56 28.36c-11.93-5.96-24.29-8.95-37.07-8.95-9.38 0-16.83 2.1-22.37 6.31-5.54 4.21-8.31 9.72-8.31 16.54s2.74 12.5 8.22 16.27c5.48 3.78 15.25 9.17 29.31 16.18s24.74 14.23 32.05 21.67c7.3 7.44 10.96 17.31 10.96 29.62 0 8.29-1.56 15.88-4.67 22.76-3.11 6.89-7.65 12.8-13.62 17.73-5.98 4.94-13.14 8.72-21.49 11.34-8.35 2.62-17.34 3.93-26.98 3.93-16.83 0-32.68-3.49-47.55-10.47v-30.43c8.78 4.26 16.53 7.34 23.24 9.22 6.71 1.89 13.3 2.83 19.77 2.83s12.75-1.03 18.12-3.1c5.37-2.07 9.58-4.92 12.63-8.57 3.05-3.65 4.58-7.72 4.58-12.22 0-6.93-2.9-12.34-8.69-16.24-5.8-3.89-15.62-9.42-29.47-16.6-13.85-7.17-24.37-14.5-31.57-21.98s-10.8-17-10.8-28.55c0-10.58 2.62-19.88 7.86-27.91 5.24-8.02 12.71-14.23 22.41-18.6s20.82-6.57 33.38-6.57c13.54 0 27.75 2.48 42.62 7.44ZM1770.99 789.78v53.51h48.58v26.48h-48.58v71.67c0 16.41.73 28.39 2.19 35.93 1.1 6.57 4.11 11.76 9.04 15.59s11.23 5.74 18.9 5.74c7.06 0 14.43-1.89 22.1-5.66v29.37c-10.74 3.43-21.23 5.14-31.48 5.14-15.86 0-27.82-3.22-35.87-9.68-8.05-6.45-13.21-14.91-15.47-25.38-2.26-10.47-3.38-24.04-3.38-40.72v-82h-42v-26.48h42v-42l33.97-11.5ZM1882.02 942.64c2.43 18.14 9.1 32.48 20 43.01 10.89 10.53 24.56 15.8 41 15.8 9.74 0 19.23-1.4 28.49-4.2 9.25-2.8 18.81-7.12 28.67-12.97v32.51c-11.08 4.87-21.12 8.34-30.13 10.41-9.01 2.07-18.51 3.1-28.49 3.1-14.12 0-26.97-2.31-38.53-6.94-11.57-4.62-21.43-11.26-29.58-19.91-8.16-8.64-14.43-19.08-18.81-31.32-4.38-12.24-6.57-25.66-6.57-40.27 0-18.63 3.53-35.06 10.59-49.31 7.06-14.24 17.19-25.29 30.41-33.14 13.21-7.85 28.21-11.78 45.02-11.78 19.72 0 35.46 4.84 47.21 14.52s20.09 22.43 25.02 38.26c4.93 15.83 7.4 33.24 7.4 52.23h-131.67Zm.37-26.48h97.33c-1.22-9.98-3.53-18.78-6.94-26.39-3.41-7.61-8.46-13.72-15.16-18.35-6.7-4.62-14.91-6.94-24.65-6.94-13.39 0-24.56 4.6-33.51 13.79s-14.64 21.82-17.07 37.89ZM2085.82 842.56l2.01 29.4c3.28-6.69 7.73-12.48 13.33-17.35 5.6-4.87 12.14-8.61 19.63-11.23 7.48-2.62 15.67-3.93 24.55-3.93 13.75 0 25.22 3.14 34.41 9.4 9.19 6.27 15.67 15.37 19.44 27.3 12.18-24.47 32.27-36.71 60.28-36.71 13.03 0 23.69 2.5 31.97 7.49 8.28 4.99 14.52 11.6 18.72 19.81 4.2 8.22 7 17.47 8.4 27.76 1.4 10.29 2.1 21.89 2.1 34.79v96.06h-33.97v-89.3c0-11.81-.21-20.94-.64-27.39-.43-6.45-1.19-11.56-2.28-15.34-4.75-16.68-15.22-25.02-31.41-25.02-4.87 0-9.59.85-14.15 2.56-4.56 1.71-8.74 4.26-12.51 7.67-3.78 3.41-7.06 7.43-9.86 12.05-2.8 4.63-4.99 9.8-6.57 15.52-1.34 4.26-2.22 9.31-2.65 15.16-.43 5.84-.64 14.73-.64 26.66v77.43h-34.33v-93.87c0-12.66-.15-21.3-.46-25.93-.3-4.62-1-8.83-2.09-12.6-2.31-7.79-6.1-13.85-11.39-18.17-5.29-4.32-11.57-6.48-18.86-6.48-9.11 0-17.34 2.71-24.69 8.13-7.35 5.42-13.09 12.94-17.22 22.55-4.13 9.62-6.19 20.45-6.19 32.51v93.87h-33.97V922.55c0-32.51-.79-59.17-2.37-79.99h31.41Z"/></g></svg>