<?xml version="1.0" encoding="UTF-8" standalone="no"?>
<!DOCTYPE svg PUBLIC "-//W3C//DTD SVG 1.1//EN" "http://www.w3.org/Graphics/SVG/1.1/DTD/svg11.dtd">
<svg width="100%" height="100%" viewBox="0 0 255 42" version="1.1" xmlns="http://www.w3.org/2000/svg" xmlns:xlink="http://www.w3.org/1999/xlink" xml:space="preserve" xmlns:serif="http://www.serif.com/" style="fill-rule:evenodd;clip-rule:evenodd;stroke-linejoin:round;stroke-miterlimit:2;">
    <path d="M9.479,40.982L9.479,23.808C10.706,22.248 12.434,21.467 13.939,21.467C15.612,21.467 17.006,22.527 17.006,24.645L17.006,40.982L26.485,40.982L26.485,23.195C27.655,22.025 29.105,21.467 30.388,21.467C32.061,21.467 33.455,22.527 33.455,24.645L33.455,40.982L42.933,40.982L42.933,23.808C42.933,19.85 41.093,13.382 33.064,13.382C29.552,13.382 26.708,15.055 24.534,17.062C23.084,14.999 20.63,13.382 16.616,13.382C12.768,13.382 9.758,15.389 8.364,17.062L8.364,14.218L0,14.218L0,40.982L9.479,40.982ZM47.014,27.6C47.014,36.8 54.095,41.818 62.905,41.818C67.143,41.818 70.321,41.205 72.83,40.313L72.83,33.287C70.6,34.124 68.146,34.57 65.135,34.57C61.288,34.57 57.664,33.399 56.605,30.444L74.112,30.444C76.008,22.303 72.552,13.382 61.065,13.382C55.211,13.382 47.015,17.118 47.015,27.6L47.014,27.6ZM65.47,24.756L56.493,24.756C56.493,21.968 58.667,20.24 61.288,20.24C65.079,20.24 65.748,23.474 65.47,24.756ZM98.47,1.952L98.47,16.392C96.853,14.72 94.233,13.382 90.497,13.382C81.52,13.382 77.561,20.686 77.561,27.6C77.561,34.514 81.52,41.818 90.497,41.818C95.292,41.818 98.247,39.588 99.585,37.358L99.585,40.982L107.949,40.982L107.949,1.952L98.47,1.952ZM98.47,24.533L98.47,30.667C97.452,32.717 95.351,34.017 93.062,34.012C89.047,34.012 87.319,30.722 87.319,27.6C87.319,24.478 89.047,21.188 93.062,21.188C95.351,21.183 97.452,22.483 98.47,24.533ZM123.173,40.982L123.173,14.218L113.694,14.218L113.694,40.982L123.173,40.982ZM123.842,5.185C123.842,1.561 121.333,0 118.434,0C115.59,0 113.025,1.561 113.025,5.185C113.025,8.865 115.59,10.427 118.434,10.427C121.333,10.427 123.842,8.865 123.842,5.185ZM137.303,17.285L137.303,14.218L128.939,14.218L128.939,40.982L138.418,40.982L138.418,23.808C139.255,22.749 140.872,21.467 142.99,21.467C145.332,21.467 147.061,22.805 147.061,25.648L147.061,40.982L156.539,40.982L156.539,24.366C156.539,18.344 153.194,13.382 145.834,13.382C142.265,13.382 139.533,14.887 137.303,17.285ZM181.507,1.952L181.507,16.392C179.89,14.72 177.27,13.382 173.534,13.382C164.557,13.382 160.598,20.686 160.598,27.6C160.598,34.514 164.557,41.818 173.534,41.818C178.329,41.818 181.284,39.588 182.623,37.358L182.623,40.982L190.986,40.982L190.986,1.952L181.507,1.952ZM181.507,24.533L181.507,30.667C180.489,32.717 178.388,34.017 176.099,34.012C172.084,34.012 170.356,30.722 170.356,27.6C170.356,24.478 172.084,21.188 176.099,21.188C178.388,21.183 180.489,22.483 181.507,24.533ZM195.338,27.6C195.338,36.8 202.419,41.818 211.229,41.818C215.466,41.818 218.645,41.205 221.154,40.313L221.154,33.287C218.923,34.124 216.47,34.57 213.459,34.57C209.612,34.57 205.988,33.399 204.928,30.444L222.436,30.444C224.332,22.303 220.875,13.382 209.389,13.382C203.534,13.382 195.338,17.118 195.338,27.6ZM213.794,24.756L204.817,24.756C204.817,21.968 206.991,20.24 209.612,20.24C213.403,20.24 214.072,23.474 213.794,24.756ZM243.738,14.218L239.333,21.244L234.928,14.218L224.223,14.218L233.813,27.656L223.721,40.982L234.426,40.982L239.333,34.068L244.24,40.982L254.945,40.982L244.853,27.656L254.443,14.218L243.738,14.218Z" style="fill:rgb(0,94,184);fill-rule:nonzero;"/>
</svg>
